<?xml version="1.0" standalone="yes"?>
<svg xmlns="http://www.w3.org/2000/svg" width="68" height="84">
<path style="fill:#ffffff; stroke:none;" d="M0 0L0 84L68 84L68 55C68 50.7613 68.9065 45.3025 67.6821 41.2145C65.765 34.8138 55.3932 39.1639 52.6034 42.6343C50.3894 45.3884 51.3055 48.8113 51.7184 52C52.467 57.7815 54.3985 65.3046 52.2724 70.9599C49.4421 78.4881 42.2749 76.3046 37 80C33.9704 74.3701 28.221 71.0635 25.348 65.0147C22.3211 58.642 21.725 48.9666 17.4668 43.5718C14.0012 39.181 2.09074 41.9053 2.00617 35.9769C1.89302 28.0443 10.8348 31.5875 14.0772 27.6674C17.5172 23.5084 18.3426 18.1435 23.2863 14.9383C31.9629 9.31271 43.431 15.6387 47.4275 24C49.4476 28.2265 49.1543 33.4449 50 38C52.6515 35.9111 53.9139 34.1989 55 31C51.1897 26.5048 55.7495 25.4452 59 29C62.1366 28.2342 64.7692 27.7216 68 28L68 0L0 0z"/>
<path style="fill:#e9e9e9; stroke:none;" d="M26 13C27.2483 13.6848 27.5484 13.7488 29 14C27.7517 13.3152 27.4516 13.2512 26 13z"/>
<path style="fill:#c4c2c2; stroke:none;" d="M29 13C31.0521 13.8743 32.7472 13.9528 35 14C32.9479 13.1258 31.2528 13.0472 29 13z"/>
<path style="fill:#dcdcdd; stroke:none;" d="M35 13C36.2484 13.6848 36.5484 13.7488 38 14C36.7517 13.3152 36.4516 13.2512 35 13z"/>
<path style="fill:#e9e9e9; stroke:none;" d="M22 16C23.58 15.3164 23.7772 15.1952 25 14C22.9076 14.4057 22.9802 14.2167 22 16z"/>
<path style="fill:#a1a1a0; stroke:none;" d="M25 14C26.769 14.7789 28.0359 14.9124 30 15C25.5158 16.5997 21.3389 16.3012 18 20L22 18L23 19L22 23C26.0972 21.916 29.7349 21.0381 34 21C33.5441 15.0244 30.5609 14.0657 25 14z"/>
<path style="fill:#7f8381; stroke:none;" d="M32 14L33 16C34.6352 15.4549 34.4549 15.6352 35 14L32 14z"/>
<path style="fill:#9c9a9b; stroke:none;" d="M35 14C36.2484 14.6848 36.5484 14.7488 38 15C36.7517 14.3152 36.4516 14.2512 35 14z"/>
<path style="fill:#7f8381; stroke:none;" d="M23 16C25.3934 16.7408 27.4926 16.3021 30 16C27.4131 14.9346 25.679 15.2185 23 16z"/>
<path style="fill:#6b6d6e; stroke:none;" d="M34 15L41 19C40.2166 15.3329 37.4883 15.191 34 15z"/>
<path style="fill:#9c9a9b; stroke:none;" d="M39 15L40 16L39 15z"/>
<path style="fill:#c4c6c4; stroke:none;" d="M21 16L22 17L21 16z"/>
<path style="fill:#898985; stroke:none;" d="M34 16L34 21C36.7169 21.097 39.3051 21.2976 42 21C40.1943 17.4597 37.8781 16.4304 34 16z"/>
<path style="fill:#959697; stroke:none;" d="M41 16L42 17L41 16M42 17L43 18L42 17z"/>
<path style="fill:#6f6f67; stroke:none;" d="M20 18C20.5451 19.6352 20.3648 19.4549 22 20L22 18L20 18z"/>
<path style="fill:#535b5d; stroke:none;" d="M41 18C42.6239 20.0436 43.6428 20.8964 46 22C44.3761 19.9564 43.3572 19.1036 41 18z"/>
<path style="fill:#818b89; stroke:none;" d="M43 18L44 19L43 18z"/>
<path style="fill:#4c4a4a; stroke:none;" d="M19 19C19.5451 20.6352 19.3648 20.4549 21 21L21 19L19 19z"/>
<path style="fill:#b0aeaf; stroke:none;" d="M22 19C20.7828 21.6483 20.6455 23.1003 21 26C22.5199 23.5935 22.8745 21.7252 22 19z"/>
<path style="fill:#8a969f; stroke:none;" d="M44 19L45 20L44 19z"/>
<path style="fill:#bfbfbf; stroke:none;" d="M17 20L18 21L17 20z"/>
<path style="fill:#252425; stroke:none;" d="M18 20C18.5451 21.6352 18.3648 21.4549 20 22L20 20L18 20z"/>
<path style="fill:#6b7d7f; stroke:none;" d="M42 20C40.1206 20.8369 39.0696 21.0087 37 21C39.4911 23.2937 41.6607 23.6438 45 24C44.0643 22.0514 43.6076 21.4498 42 20z"/>
<path style="fill:#9a9ca1; stroke:none;" d="M45 20L46 21L45 20z"/>
<path style="fill:#7d7d7d; stroke:none;" d="M17 21L18 22L17 21z"/>
<path style="fill:#040403; stroke:none;" d="M18 21L18 24C18.6961 22.4463 18.6961 22.5537 18 21z"/>
<path style="fill:#718381; stroke:none;" d="M24 34C25.0994 31.3056 23.8253 27.8934 25.1975 25.4336C26.8035 22.5549 31.2324 23.0251 34 23C32.8643 22.5112 32.1177 22.1647 30.8619 22.0193C21.7915 20.9687 23.4759 27.3587 24 34z"/>
<path style="fill:#596f7a; stroke:none;" d="M27 21C30.3673 22.4525 34.3369 22.7109 38 23C34.7341 20.5258 30.9899 21.0004 27 21z"/>
<path style="fill:#b7b7b7; stroke:none;" d="M46 21L47 22L46 21z"/>
<path style="fill:#b0aeaf; stroke:none;" d="M16 22L17 23L16 22z"/>
<path style="fill:#252425; stroke:none;" d="M17 22L16 26C18.1792 26.7264 17.7803 26.4395 17 28C18.0141 30.0809 17.7451 30.7129 17 33C18.7968 33 18.5215 32.9857 20 32L21 37C22.5203 32.0573 20.7962 25.4928 17 22z"/>
<path style="fill:#504f50; stroke:none;" d="M19.3333 22.6667C19.2778 22.7222 19.2222 23.7778 19.6667 23.3333C19.7222 23.2778 19.7778 22.2222 19.3333 22.6667z"/>
<path style="fill:#286178; stroke:none;" d="M45 22C44.6612 25.0308 44.8947 27.9544 45 31C46.3148 27.9448 46.6726 24.8931 45 22z"/>
<path style="fill:#7a7677; stroke:none;" d="M46 22L47 23L46 22M16 23L17 24L16 23z"/>
<path style="fill:#6f6f67; stroke:none;" d="M20 23L20 27C20.7102 25.2405 20.7102 24.7595 20 23z"/>
<path style="fill:#b1d3d5; stroke:none;" d="M26 23L29 26C30.731 24.994 32.053 24.4535 34 24C31.3873 22.9023 28.8355 23.0072 26 23z"/>
<path style="fill:#8bb4c4; stroke:none;" d="M34 23L36 27C37.0154 25.8607 37.3087 25.3884 38 24L34 23z"/>
<path style="fill:#819f9f; stroke:none;" d="M36 23C37.5061 23.683 38.3148 23.8259 40 24C38.494 23.317 37.6852 23.1741 36 23z"/>
<path style="fill:#315169; stroke:none;" d="M42.6667 23.3333C42.2222 23.7778 43.2778 23.7222 43.3333 23.6667C43.7778 23.2222 42.7222 23.2778 42.6667 23.3333z"/>
<path style="fill:#b3b3b3; stroke:none;" d="M47 23L48 24L47 23z"/>
<path style="fill:#d3d3d3; stroke:none;" d="M15 24L15 28C15.7102 26.2405 15.7102 25.7595 15 24z"/>
<path style="fill:#9da5a7; stroke:none;" d="M22 24C20.9525 29.445 22.9602 34.6415 24 40C25.7482 35.521 24.0508 28.2673 22 24z"/>
<path style="fill:#8dacb4; stroke:none;" d="M24 24L24 28C24.7102 26.2405 24.7102 25.7595 24 24z"/>
<path style="fill:#c1ebf7; stroke:none;" d="M25 24L25 28C25.7102 26.2405 25.7102 25.7595 25 24z"/>
<path style="fill:#abd7ef; stroke:none;" d="M26 24L25 32L27 29C27.9857 30.4785 28 30.2032 28 32C29.272 29.2893 29.3249 26.9665 29 24L26 24z"/>
<path style="fill:#ddf9fd; stroke:none;" d="M30 24C29.5239 26.8766 29.4385 29.1369 30 32L33 26C36.3088 27.5923 39.4624 27.2154 43 28C41.6181 25.5797 40.6374 24.9391 38 24L36 27C34.2495 24.5519 32.996 24.2249 30 24z"/>
<path style="fill:#9bbbc2; stroke:none;" d="M40 24C41.1393 25.0154 41.6116 25.3087 43 26C42.0198 24.2167 42.0924 24.4057 40 24z"/>
<path style="fill:#669fb6; stroke:none;" d="M43.3333 24.6667C43.2778 24.7222 43.2222 25.7778 43.6667 25.3333C43.7222 25.2778 43.7778 24.2222 43.3333 24.6667z"/>
<path style="fill:#5b6960; stroke:none;" d="M46 24L46 27L48 27L48 24L46 24z"/>
<path style="fill:#458298; stroke:none;" d="M44 25L44 29C44.7102 27.2405 44.7102 26.7595 44 25z"/>
<path style="fill:#b3b3b3; stroke:none;" d="M52 29C53.9792 28.0382 55.8602 27.5281 58 27C54.9631 25.0312 53.1515 25.5573 52 29z"/>
<path style="fill:#040403; stroke:none;" d="M16 26L16 28C17.6352 27.4549 17.4549 27.6352 18 26L16 26z"/>
<path style="fill:#b5bbbc; stroke:none;" d="M33 26L34 27L33 26z"/>
<path style="fill:#9dafb5; stroke:none;" d="M39.6667 26.3333C39.2222 26.7778 40.2778 26.7222 40.3333 26.6667C40.7778 26.2222 39.7222 26.2778 39.6667 26.3333z"/>
<path style="fill:#99dfed; stroke:none;" d="M43 26L41 36C44.1781 33.5807 44.4868 29.5767 43 26z"/>
<path style="fill:#c4c6c4; stroke:none;" d="M48 26L48 29C48.6961 27.4463 48.6961 27.5537 48 26z"/>
<path style="fill:#474649; stroke:none;" d="M32 27C32.5451 28.6352 32.3648 28.4549 34 29L34 27L32 27z"/>
<path style="fill:#9a9ca1; stroke:none;" d="M34 27L35 28L34 27z"/>
<path style="fill:#7b939c; stroke:none;" d="M38 27L39 28L38 27z"/>
<path style="fill:#474649; stroke:none;" d="M39 27L38 31C39.2741 29.6589 40.0407 28.5969 41 27L39 27z"/>
<path style="fill:#898985; stroke:none;" d="M41 27C40.0143 28.4785 40 28.2032 40 30C41.2892 28.5574 41.4009 28.7663 41 27z"/>
<path style="fill:#61797f; stroke:none;" d="M46.3333 27.6667C46.2778 27.7222 46.2222 28.7778 46.6667 28.3333C46.7222 28.2778 46.7778 27.2222 46.3333 27.6667z"/>
<path style="fill:#2f383b; stroke:none;" d="M47 27L47 30C47.6961 28.4463 47.6961 28.5537 47 27z"/>
<path style="fill:#7d7d7d; stroke:none;" d="M53 27L53 30C53.6961 28.4463 53.6961 28.5537 53 27z"/>
<path style="fill:#ffffff; stroke:none;" d="M54 27C55.3989 31.0519 55.8336 33.7666 55 38C59.5274 36.5278 63.2097 35.3296 68 36L68 31C65.5714 30.5399 63.2752 31.6445 60.9498 31.1427C58.4313 30.5993 56.2663 28.1788 54 27z"/>
<path style="fill:#a1a1a0; stroke:none;" d="M57 27C57.7875 29.445 58.8534 31.2717 61 29C63.6883 29.5917 65.3412 29.6751 68 29C64.5526 27.5631 60.6427 28.0832 57 27z"/>
<path style="fill:#cdcccc; stroke:none;" d="M58 27L59 28L58 27z"/>
<path style="fill:#cecfce; stroke:none;" d="M63 27C64.2484 27.6848 64.5484 27.7488 66 28C64.7516 27.3152 64.4516 27.2512 63 27z"/>
<path style="fill:#a9a9a9; stroke:none;" d="M12 33L18 29C14.5126 27.87 13.1556 29.8517 12 33z"/>
<path style="fill:#737575; stroke:none;" d="M18 28L19 29L18 28z"/>
<path style="fill:#818b89; stroke:none;" d="M31 28L32 29L31 28z"/>
<path style="fill:#2d2b29; stroke:none;" d="M32.3333 28.6667C32.2778 28.7222 32.2222 29.7778 32.6667 29.3333C32.7222 29.2778 32.7778 28.2222 32.3333 28.6667z"/>
<path style="fill:#5e5e5e; stroke:none;" d="M34 28C33.0143 29.4785 33 29.2032 33 31C34.2892 29.5574 34.4009 29.7663 34 28z"/>
<path style="fill:#778d89; stroke:none;" d="M35 28L35 33C35.8299 30.9695 35.8299 30.0305 35 28z"/>
<path style="fill:#ffffff; stroke:none;" d="M36 28L37 32C37.7511 29.9535 37.6556 29.4043 36 28z"/>
<path style="fill:#e0e0e1; stroke:none;" d="M5 29C6.76904 29.7789 8.03594 29.9124 10 30C8.23096 29.2211 6.96406 29.0876 5 29z"/>
<path style="fill:#ffffff; stroke:none;" d="M16 29C13.0766 32.5893 11.4259 33.5504 7 32L7 36C4.87724 36.3067 4.314 36.3821 3 38C8.47567 37.4361 12.6884 39.2044 18 40C16.3901 35.7151 16.5409 33.3031 18 29L16 29z"/>
<path style="fill:#8a8c8d; stroke:none;" d="M18.3333 29.6667C18.2778 29.7222 18.2222 30.7778 18.6667 30.3333C18.7222 30.2778 18.7778 29.2222 18.3333 29.6667z"/>
<path style="fill:#404039; stroke:none;" d="M21 29L21 34C21.8299 31.9695 21.8299 31.0305 21 29z"/>
<path style="fill:#abe3fd; stroke:none;" d="M26 29C26.1196 34.6133 26.5954 39.4896 33 40C31.1873 37.6549 29.3168 35.6549 28 33C31.0205 35.2468 33.25 37.2302 37 38L36 34L33 35C32.1964 32.5892 29.794 28.0301 29 32C27.8887 30.2575 27.7295 29.8807 26 29z"/>
<path style="fill:#5b6960; stroke:none;" d="M31 29L31 32C31.6961 30.4463 31.6961 30.5537 31 29z"/>
<path style="fill:#040403; stroke:none;" d="M39 29L40 33C41.6427 30.9209 41.1834 30.4194 39 29z"/>
<path style="fill:#373d40; stroke:none;" d="M41 29L42 30L41 29z"/>
<path style="fill:#6fb5d5; stroke:none;" d="M44 29L44 33C44.7102 31.2405 44.7102 30.7595 44 29z"/>
<path style="fill:#415a66; stroke:none;" d="M46 29L46 35C47.3872 32.56 47.5162 31.3472 46 29z"/>
<path style="fill:#848a8c; stroke:none;" d="M48 29L48 32C48.6961 30.4463 48.6961 30.5537 48 29z"/>
<path style="fill:#959697; stroke:none;" d="M54 29L54 31L56 31C55.4549 29.3648 55.6352 29.5451 54 29z"/>
<path style="fill:#7d7d7d; stroke:none;" d="M61 29L61 31C62.6351 30.455 62.455 30.6351 63 29L61 29z"/>
<path style="fill:#686667; stroke:none;" d="M67 29L68 30L67 29z"/>
<path style="fill:#a9a9a9; stroke:none;" d="M4 30C6.18629 31.1161 7.54944 31.2266 10 31C7.9479 30.1258 6.25283 30.0472 4 30z"/>
<path style="fill:#dcdcdd; stroke:none;" d="M10 30C11.2484 30.6848 11.5484 30.7488 13 31C11.7516 30.3152 11.4516 30.2512 10 30z"/>
<path style="fill:#040403; stroke:none;" d="M32 30C33.1194 32.6075 34.3414 33.0679 35 30L32 30z"/>
<path style="fill:#c3dfe1; stroke:none;" d="M36.3333 30.6667C36.2778 30.7222 36.2222 31.7778 36.6667 31.3333C36.7222 31.2778 36.7778 30.2222 36.3333 30.6667z"/>
<path style="fill:#cdcccc; stroke:none;" d="M53 30L54 31L53 30z"/>
<path style="fill:#b0aeaf; stroke:none;" d="M62 30L63 31L62 30z"/>
<path style="fill:#e0e0e1; stroke:none;" d="M63 30L59 31C60.5531 31.8905 64.0798 32.6156 63 30z"/>
<path style="fill:#9a9ca1; stroke:none;" d="M67 30L68 31L67 30z"/>
<path style="fill:#7d7d7d; stroke:none;" d="M3 33C4.57999 32.3164 4.77723 32.1952 6 31C3.90759 31.4057 3.98025 31.2167 3 33z"/>
<path style="fill:#efefef; stroke:none;" d="M6 31C5.43819 32.8006 5.17587 34.1218 5 36L7 36L8 31L6 31z"/>
<path style="fill:#8a8c8d; stroke:none;" d="M9 31C10.2228 32.1952 10.42 32.3164 12 33C11.0198 31.2167 11.0924 31.4057 9 31z"/>
<path style="fill:#b0aeaf; stroke:none;" d="M17 31L18 32L17 31z"/>
<path style="fill:#818b89; stroke:none;" d="M38 31L39 32L38 31z"/>
<path style="fill:#5197b1; stroke:none;" d="M45 31C44.4549 32.6352 44.6352 32.4549 43 33L45 36C45.8299 33.9695 45.8299 33.0305 45 31z"/>
<path style="fill:#7d7d7d; stroke:none;" d="M55 31L53 37C55.3998 35.3105 55.976 33.7964 55 31z"/>
<path style="fill:#d3d3d3; stroke:none;" d="M56.3333 31.6667C56.2778 31.7222 56.2222 32.7778 56.6667 32.3333C56.7222 32.2778 56.7778 31.2222 56.3333 31.6667z"/>
<path style="fill:#a1a1a0; stroke:none;" d="M2 32L1 37C2.31818 35.0739 2.65135 34.2341 2 32z"/>
<path style="fill:#e0e0e1; stroke:none;" d="M9 32C10.314 33.6179 10.8772 33.6933 13 34C11.6234 33.0886 10.5601 32.5962 9 32z"/>
<path style="fill:#686667; stroke:none;" d="M16 32L16 35C16.6961 33.4463 16.6961 33.5537 16 32z"/>
<path style="fill:#373531; stroke:none;" d="M19 32C19.2721 35.5641 19.9323 37.1214 23 39L23 35C21.8046 35.5977 22.0226 35.4661 21 37C20.5196 35.0404 20.0623 33.6932 19 32z"/>
<path style="fill:#6f6f67; stroke:none;" d="M22 32L22 35C22.6961 33.4463 22.6961 33.5537 22 32z"/>
<path style="fill:#738c93; stroke:none;" d="M25 32C24.5719 35.9336 24.5842 39.5963 28 42C27.1196 38.674 26.409 35.1114 25 32z"/>
<path style="fill:#3b494f; stroke:none;" d="M32 32L33 33L32 32z"/>
<path style="fill:#a2c9d1; stroke:none;" d="M33 34C34.2871 34.7396 35.1338 34.8486 36 36C37.8794 34.8254 38.7155 34.8695 41 35C38.3132 32.226 36.4539 32.6085 33 34z"/>
<path style="fill:#3e646b; stroke:none;" d="M39 32L40 33L39 32M41 32L42 33L41 32z"/>
<path style="fill:#4a6a7a; stroke:none;" d="M47 32L47 39C48.0595 36.4657 48.0595 34.5343 47 32z"/>
<path style="fill:#515d5f; stroke:none;" d="M48 32C47.9144 36.1667 46.3344 40.2783 50 43C49.7109 39.3369 49.4525 35.3673 48 32z"/>
<path style="fill:#cdcccc; stroke:none;" d="M67.3333 32.6667C67.2777 32.7223 67.2222 33.7778 67.6667 33.3333C67.7222 33.2778 67.7778 32.2222 67.3333 32.6667z"/>
<path style="fill:#dcdcdd; stroke:none;" d="M3 33L3 35L5 35L5 33L3 33M15.3333 33.6667C15.2778 33.7222 15.2222 34.7778 15.6667 34.3333C15.7222 34.2778 15.7778 33.2222 15.3333 33.6667z"/>
<path style="fill:#040403; stroke:none;" d="M17 33C17.648 35.3936 18.0324 36.5362 20 38C19.2585 35.7353 18.8429 34.453 17 33z"/>
<path style="fill:#79afbf; stroke:none;" d="M28 33L28 36C29.0154 34.8607 29.3087 34.3884 30 33L28 33z"/>
<path style="fill:#849497; stroke:none;" d="M32 33L33 34L32 33z"/>
<path style="fill:#596f7a; stroke:none;" d="M33.6667 33.3333C33.2222 33.7778 34.2778 33.7222 34.3333 33.6667C34.7778 33.2222 33.7222 33.2778 33.6667 33.3333z"/>
<path style="fill:#6b9bab; stroke:none;" d="M39 33C40.2484 33.6848 40.5484 33.7488 42 34C40.7516 33.3152 40.4516 33.2512 39 33z"/>
<path style="fill:#b5bbbc; stroke:none;" d="M54 33L55 34L54 33z"/>
<path style="fill:#4c7d8b; stroke:none;" d="M29.3333 34.6667C29.2778 34.7222 29.2222 35.7778 29.6667 35.3333C29.7222 35.2778 29.7778 34.2222 29.3333 34.6667z"/>
<path style="fill:#6ba7b1; stroke:none;" d="M30 34L29 37C31.0417 37.8945 32.8278 38.5363 35 39C33.4519 37.1325 31.8575 35.5625 30 34z"/>
<path style="fill:#5ba5bd; stroke:none;" d="M37.3333 34.6667C37.2778 34.7222 37.2222 35.7778 37.6667 35.3333C37.7222 35.2778 37.7778 34.2222 37.3333 34.6667z"/>
<path style="fill:#3d88aa; stroke:none;" d="M43 34L40 39C43.0503 38.0516 43.9123 36.9971 45 34L43 34z"/>
<path style="fill:#5e5e5e; stroke:none;" d="M2.33333 35.6667C2.27779 35.7222 2.22221 36.7778 2.66667 36.3333C2.72223 36.2778 2.77778 35.2222 2.33333 35.6667z"/>
<path style="fill:#bfbfbf; stroke:none;" d="M3.66667 35.3333C3.22224 35.7778 4.27776 35.7222 4.33333 35.6667C4.77779 35.2222 3.72222 35.2778 3.66667 35.3333z"/>
<path style="fill:#9c9a9b; stroke:none;" d="M16 35L17 36L16 35z"/>
<path style="fill:#383837; stroke:none;" d="M17.3333 35.6667C17.2778 35.7222 17.2222 36.7778 17.6667 36.3333C17.7222 36.2778 17.7778 35.2222 17.3333 35.6667z"/>
<path style="fill:#8bb4c4; stroke:none;" d="M26 35L26 38C26.6961 36.4463 26.6961 36.5537 26 35z"/>
<path style="fill:#6bc3e3; stroke:none;" d="M37 38C38.8782 37.8241 40.1994 37.5618 42 37C39.587 35.3382 38.6075 35.5561 37 38z"/>
<path style="fill:#337092; stroke:none;" d="M46 35L46 39C46.7102 37.2405 46.7102 36.7595 46 35z"/>
<path style="fill:#a1a1a0; stroke:none;" d="M49 35C49.428 37.8594 50.3782 39.6122 52 42C53.9486 41.0643 54.5502 40.6076 56 39L52 40C53.1863 38.8137 53.5279 38.4162 54 37C51.2913 37.0981 50.6878 36.9799 49 35z"/>
<path style="fill:#cdcccc; stroke:none;" d="M53 35L54 36L53 35z"/>
<path style="fill:#bfbfbf; stroke:none;" d="M55 35L56 36L55 35z"/>
<path style="fill:#dcdcdd; stroke:none;" d="M62 35C63.506 35.683 64.3148 35.8259 66 36C64.494 35.317 63.6852 35.1741 62 35z"/>
<path style="fill:#cdcccc; stroke:none;" d="M16 36L17 37L16 36z"/>
<path style="fill:#7dbfe1; stroke:none;" d="M44 36L42 40L46 40L46 36L44 36z"/>
<path style="fill:#cecfce; stroke:none;" d="M52 36L53 37L52 36z"/>
<path style="fill:#dcdcdd; stroke:none;" d="M59.6667 36.3333C59.2222 36.7778 60.2778 36.7222 60.3333 36.6667C60.7778 36.2222 59.7222 36.2778 59.6667 36.3333z"/>
<path style="fill:#b7b7b7; stroke:none;" d="M55 38C58.3179 39.3511 60.8461 38.5172 64 37C60.9381 36.0939 58.0855 37.2958 55 38z"/>
<path style="fill:#9c9a9b; stroke:none;" d="M64 36C65.314 37.6179 65.8772 37.6933 68 38C66.457 36.7333 65.9522 36.5108 64 36z"/>
<path style="fill:#c4c6c4; stroke:none;" d="M67 36L68 37L67 36z"/>
<path style="fill:#7f8381; stroke:none;" d="M2 37C2.48245 39.364 2.636 39.5175 5 40C4.02749 38.7301 3.26989 37.9725 2 37z"/>
<path style="fill:#cdcccc; stroke:none;" d="M6 37C7.50605 37.683 8.31478 37.8259 10 38C8.49396 37.317 7.6852 37.1741 6 37z"/>
<path style="fill:#686667; stroke:none;" d="M17 37L18 38L17 37z"/>
<path style="fill:#5e5e5e; stroke:none;" d="M23.3333 37.6667C23.2778 37.7222 23.2222 38.7778 23.6667 38.3333C23.7222 38.2778 23.7778 37.2222 23.3333 37.6667z"/>
<path style="fill:#efefef; stroke:none;" d="M54 37C52.8137 38.1863 52.4721 38.5838 52 40C53.9943 39.1527 54.699 38.9929 54 37z"/>
<path style="fill:#d3d3d3; stroke:none;" d="M56.6667 37.3333C56.2222 37.7778 57.2778 37.7222 57.3333 37.6667C57.7778 37.2222 56.7222 37.2778 56.6667 37.3333M3 38C4.24834 38.6848 4.54843 38.7488 6 39C4.75165 38.3152 4.45158 38.2512 3 38z"/>
<path style="fill:#959697; stroke:none;" d="M5 40C6.58 39.3164 6.77723 39.1952 8 38C6.42 38.6836 6.22278 38.8048 5 40z"/>
<path style="fill:#bfbfbf; stroke:none;" d="M8 38C10.4027 40.2406 11.7796 40.6143 15 40C12.7485 38.9115 10.4653 38.4813 8 38z"/>
<path style="fill:#d3d3d3; stroke:none;" d="M10.6667 38.3333C10.2222 38.7778 11.2778 38.7222 11.3333 38.6667C11.7778 38.2222 10.7222 38.2778 10.6667 38.3333z"/>
<path style="fill:#b3b3b3; stroke:none;" d="M17 38L18 39L17 38z"/>
<path style="fill:#555656; stroke:none;" d="M18 38L19 39L18 38z"/>
<path style="fill:#252425; stroke:none;" d="M19 38C20.4988 40.7785 22.8943 42.8448 22 46L22 48C25.7726 52.6088 25.2883 59.5862 28 65C29.3141 61.6318 28.228 58.4408 27.3735 55C25.8829 48.9981 25.7318 40.1067 19 38z"/>
<path style="fill:#a5bfcd; stroke:none;" d="M27.3333 38.6667C27.2778 38.7222 27.2222 39.7778 27.6667 39.3333C27.7222 39.2778 27.7778 38.2222 27.3333 38.6667z"/>
<path style="fill:#93b7c5; stroke:none;" d="M33 39C34.8092 39.5743 35.0688 39.4653 37 39C35.3407 38.5935 34.7582 38.6914 33 39z"/>
<path style="fill:#54889f; stroke:none;" d="M37 38C38.5398 39.8031 39.5975 39.832 42 40C40.2495 38.7451 39.1426 38.3863 37 38z"/>
<path style="fill:#bfbfbf; stroke:none;" d="M66.6667 38.3333C66.2222 38.7778 67.2778 38.7222 67.3333 38.6667C67.7778 38.2222 66.7222 38.2778 66.6667 38.3333z"/>
<path style="fill:#b7b7b7; stroke:none;" d="M18 39L19 40L18 39z"/>
<path style="fill:#373d40; stroke:none;" d="M23.3333 39.6667C23.2778 39.7222 23.2222 40.7778 23.6667 40.3333C23.7222 40.2778 23.7778 39.2222 23.3333 39.6667z"/>
<path style="fill:#779999; stroke:none;" d="M36 39C34.1994 39.5618 32.8782 39.8241 31 40C32.5867 40.9142 37.1835 41.8668 36 39z"/>
<path style="fill:#6b817f; stroke:none;" d="M46 39C40.6748 40.5776 34.563 40.9539 29 41C32.0164 42.4566 46.7949 43.8222 46 39z"/>
<path style="fill:#c4c2c2; stroke:none;" d="M3 40C4.24834 40.6848 4.54843 40.7488 6 41C4.75165 40.3152 4.45158 40.2512 3 40z"/>
<path style="fill:#a9a9a9; stroke:none;" d="M14 40C15.6535 41.6422 16.9098 42.9506 18 45C19.6868 41.5354 17.2656 40.523 14 40z"/>
<path style="fill:#e0e0e1; stroke:none;" d="M18 40C19.5489 42.1357 20.8643 43.4511 23 45C21.6759 42.3134 20.6866 41.3241 18 40z"/>
<path style="fill:#8a8c8d; stroke:none;" d="M20 40L21 41L20 40z"/>
<path style="fill:#848a8c; stroke:none;" d="M24 40L24 43C24.6961 41.4463 24.6961 41.5537 24 40z"/>
<path style="fill:#b3b3b3; stroke:none;" d="M25 40L26 47C27.0777 44.2268 26.663 42.4353 25 40z"/>
<path style="fill:#9bbbc2; stroke:none;" d="M28 40C29.2484 40.6848 29.5484 40.7488 31 41C29.7516 40.3152 29.4516 40.2512 28 40z"/>
<path style="fill:#d3d3d3; stroke:none;" d="M50 40C50.8993 42.1236 50.8764 42.1007 53 43C51.9988 41.0762 51.9225 40.9015 50 40z"/>
<path style="fill:#7f8381; stroke:none;" d="M21 41L22 42L21 41z"/>
<path style="fill:#a1a1a0; stroke:none;" d="M28 41C25.6462 47.9667 28.2759 50.5673 30 57C31.2553 55.075 32.3003 53.5478 34 52C33.6295 47.6541 36.1003 45.6567 38 42C34.5448 41.9905 31.3679 41.802 28 41z"/>
<path style="fill:#696f73; stroke:none;" d="M46 41C46.1782 44.0559 46.3257 46.9508 46 50C48.1727 52.3794 48.423 53.809 48 57C52.5066 53.1222 50.409 44.1606 46 41z"/>
<path style="fill:#cecfce; stroke:none;" d="M16.6667 42.3333C16.2222 42.7778 17.2778 42.7222 17.3333 42.6667C17.7778 42.2222 16.7222 42.2778 16.6667 42.3333z"/>
<path style="fill:#737575; stroke:none;" d="M22 42L23 43L22 42z"/>
<path style="fill:#898b95; stroke:none;" d="M38 42L38 44C41.7087 44.2535 43.6948 45.0518 46 48C46.6756 45.8365 46.387 44.2684 46 42L38 42z"/>
<path style="fill:#737575; stroke:none;" d="M50.3333 42.6667C50.2778 42.7222 50.2222 43.7778 50.6667 43.3333C50.7222 43.2778 50.7778 42.2222 50.3333 42.6667z"/>
<path style="fill:#474649; stroke:none;" d="M19 43C19.9015 44.9225 20.0762 44.9988 22 46C20.8966 44.5434 20.4566 44.1034 19 43z"/>
<path style="fill:#9a9ca1; stroke:none;" d="M20 43L21 44L20 43z"/>
<path style="fill:#4c4a4a; stroke:none;" d="M49 43L49 48C49.8299 45.9695 49.8299 45.0305 49 43z"/>
<path style="fill:#b3b3b3; stroke:none;" d="M21 44L22 45L21 44z"/>
<path style="fill:#555656; stroke:none;" d="M23.3333 44.6667C23.2778 44.7222 23.2222 45.7778 23.6667 45.3333C23.7222 45.2778 23.7778 44.2222 23.3333 44.6667z"/>
<path style="fill:#7f8381; stroke:none;" d="M25 44L25 48C25.7102 46.2405 25.7102 45.7595 25 44z"/>
<path style="fill:#396f83; stroke:none;" d="M37 44C42.069 46.6754 45.7826 50.7627 38 53C39.3643 54.8191 39.4922 54.031 39 56C42.6929 54.8087 48.6469 49.1484 44.1057 45.3179C42.2138 43.722 39.2945 44.0258 37 44z"/>
<path style="fill:#b3b3b3; stroke:none;" d="M50.3333 44.6667C50.2778 44.7222 50.2222 45.7778 50.6667 45.3333C50.7222 45.2778 50.7778 44.2222 50.3333 44.6667z"/>
<path style="fill:#7a7677; stroke:none;" d="M19 45L20 46L19 45z"/>
<path style="fill:#111111; stroke:none;" d="M20 45C21.1623 53.5896 24.2627 62.7488 29 70C29.9827 66.311 27.5553 63.36 26.0926 60C23.9211 55.0119 23.7832 49.0207 20 45z"/>
<path style="fill:#959697; stroke:none;" d="M22 45L23 46L22 45z"/>
<path style="fill:#4e778f; stroke:none;" d="M35 45C33.2099 51.3034 35.8137 53.5831 42 53C38.0239 50.8683 36.4663 49.7828 37 45L35 45z"/>
<path style="fill:#3d88aa; stroke:none;" d="M37 45C38.769 45.7789 40.0359 45.9124 42 46C40.231 45.2211 38.9641 45.0876 37 45z"/>
<path style="fill:#bfbfbf; stroke:none;" d="M19.3333 46.6667C19.2778 46.7222 19.2222 47.7778 19.6667 47.3333C19.7222 47.2778 19.7778 46.2222 19.3333 46.6667z"/>
<path style="fill:#43aad8; stroke:none;" d="M37 46C36.4382 47.8006 36.1759 49.1218 36 51C37.1326 49.1013 37.4734 48.1429 37 46z"/>
<path style="fill:#53c1fb; stroke:none;" d="M38.6667 46.3333C38.2222 46.7778 39.2778 46.7222 39.3333 46.6667C39.7778 46.2222 38.7222 46.2778 38.6667 46.3333z"/>
<path style="fill:#43aad8; stroke:none;" d="M40 46C41.458 47.0811 42.248 47.436 44 48C42.457 46.7333 41.9522 46.5108 40 46z"/>
<path style="fill:#7f8381; stroke:none;" d="M50.3333 46.6667C50.2778 46.7222 50.2222 47.7778 50.6667 47.3333C50.7222 47.2778 50.7778 46.2222 50.3333 46.6667z"/>
<path style="fill:#75899d; stroke:none;" d="M33 47L33 51C33.7102 49.2405 33.7102 48.7595 33 47z"/>
<path style="fill:#25a5dd; stroke:none;" d="M37 52C40.6916 51.8796 42.7774 51.6867 44 48C39.8216 47.1305 37.7429 47.5518 37 52z"/>
<path style="fill:#7d7d7d; stroke:none;" d="M20 48L20 51C20.6961 49.4463 20.6961 49.5537 20 48z"/>
<path style="fill:#383837; stroke:none;" d="M23 48C23.1174 50.7301 23.4992 53.3142 24 56C25.0383 53.102 24.4327 50.6958 23 48z"/>
<path style="fill:#2f8db1; stroke:none;" d="M44.3333 48.6667C44.2778 48.7222 44.2222 49.7778 44.6667 49.3333C44.7222 49.2778 44.7778 48.2222 44.3333 48.6667z"/>
<path style="fill:#555656; stroke:none;" d="M26.3333 50.6667C26.2778 50.7222 26.2222 51.7778 26.6667 51.3333C26.7222 51.2778 26.7778 50.2222 26.3333 50.6667z"/>
<path style="fill:#8a8c8d; stroke:none;" d="M46 50L46 52L48 52L48 50L46 50z"/>
<path style="fill:#cecfce; stroke:none;" d="M51.3333 50.6667C51.2778 50.7222 51.2222 51.7778 51.6667 51.3333C51.7222 51.2778 51.7778 50.2222 51.3333 50.6667z"/>
<path style="fill:#e0e0e1; stroke:none;" d="M20.3333 51.6667C20.2778 51.7222 20.2222 52.7778 20.6667 52.3333C20.7222 52.2778 20.7778 51.2222 20.3333 51.6667z"/>
<path style="fill:#65858b; stroke:none;" d="M45 51C43.8137 52.1863 43.4721 52.5838 43 54C44.752 53.436 45.542 53.0811 47 52L45 51z"/>
<path style="fill:#373d40; stroke:none;" d="M50 51L50 56C50.8299 53.9695 50.8299 53.0305 50 51z"/>
<path style="fill:#555656; stroke:none;" d="M21 52L22 53L21 52z"/>
<path style="fill:#7d7d7d; stroke:none;" d="M27.3333 52.6667C27.2778 52.7222 27.2222 53.7778 27.6667 53.3333C27.7222 53.2778 27.7778 52.2222 27.3333 52.6667z"/>
<path style="fill:#a7adaf; stroke:none;" d="M28 52C28.1722 57.9561 29.6273 69.8617 35 73C34.2602 65.7464 32.9261 57.6139 28 52z"/>
<path style="fill:#9babb9; stroke:none;" d="M32 52C33.8962 54.0199 35.4147 54.9947 38 56C36.3917 53.4271 34.9437 52.7103 32 52z"/>
<path style="fill:#4a6a7a; stroke:none;" d="M44 54L44 56C45.4785 56.9857 45.2032 57 47 57L46 54C47.7968 54 47.5215 53.9857 49 53C46.8597 52.5897 46.0375 53.0315 44 54z"/>
<path style="fill:#8a8c8d; stroke:none;" d="M51 52L51 56C51.7102 54.2405 51.7102 53.7595 51 52z"/>
<path style="fill:#7f8381; stroke:none;" d="M21 53L22 54L21 53z"/>
<path style="fill:#738c93; stroke:none;" d="M31 53L31 55C32.6352 54.4549 32.4549 54.6352 33 53L31 53z"/>
<path style="fill:#254551; stroke:none;" d="M48 53L47 56C48.7662 55.0214 48.9554 54.7782 48 53z"/>
<path style="fill:#cdcccc; stroke:none;" d="M21.3333 54.6667C21.2778 54.7222 21.2222 55.7778 21.6667 55.3333C21.7222 55.2778 21.7778 54.2222 21.3333 54.6667z"/>
<path style="fill:#404039; stroke:none;" d="M22.3333 54.6667C22.2778 54.7222 22.2222 55.7778 22.6667 55.3333C22.7222 55.2778 22.7778 54.2222 22.3333 54.6667z"/>
<path style="fill:#5e5e5e; stroke:none;" d="M27.3333 54.6667C27.2778 54.7222 27.2222 55.7778 27.6667 55.3333C27.7222 55.2778 27.7778 54.2222 27.3333 54.6667z"/>
<path style="fill:#4b757b; stroke:none;" d="M32 54L35 59C35.4943 55.8628 35.0359 55.0004 32 54z"/>
<path style="fill:#65879b; stroke:none;" d="M38 54L38 56C39.6352 55.4549 39.4549 55.6352 40 54L38 54z"/>
<path style="fill:#8dacb4; stroke:none;" d="M42.6667 54.3333C42.2222 54.7778 43.2778 54.7222 43.3333 54.6667C43.7778 54.2222 42.7222 54.2778 42.6667 54.3333z"/>
<path style="fill:#6195a7; stroke:none;" d="M46 54L46 56C47.6352 55.4549 47.4549 55.6352 48 54L46 54z"/>
<path style="fill:#596f7a; stroke:none;" d="M31.3333 55.6667C31.2778 55.7222 31.2222 56.7778 31.6667 56.3333C31.7222 56.2778 31.7778 55.2222 31.3333 55.6667z"/>
<path style="fill:#458298; stroke:none;" d="M32 55C32.4057 57.0924 32.2167 57.0198 34 58C33.3087 56.6116 33.0154 56.1394 32 55z"/>
<path style="fill:#6b8691; stroke:none;" d="M42.6667 55.3333C42.2222 55.7778 43.2778 55.7222 43.3333 55.6667C43.7778 55.2222 42.7222 55.2778 42.6667 55.3333z"/>
<path style="fill:#a9a9a9; stroke:none;" d="M22.3333 56.6667C22.2778 56.7222 22.2222 57.7778 22.6667 57.3333C22.7222 57.2778 22.7778 56.2222 22.3333 56.6667z"/>
<path style="fill:#6badcb; stroke:none;" d="M33 56L34 57L33 56z"/>
<path style="fill:#7b939c; stroke:none;" d="M36.3333 56.6667C36.2778 56.7222 36.2222 57.7778 36.6667 57.3333C36.7222 57.2778 36.7778 56.2222 36.3333 56.6667z"/>
<path style="fill:#4c7d8b; stroke:none;" d="M37 56C37.6735 58.2974 37.9653 58.7741 40 60C39.5194 62.2007 39.5194 62.7993 40 65C43.4761 60.6336 41.8019 58.0608 37 56z"/>
<path style="fill:#599dbf; stroke:none;" d="M39 56L39 58L42 58L42 56L39 56z"/>
<path style="fill:#415a66; stroke:none;" d="M42 56L42 59L44 59L44 56L42 56z"/>
<path style="fill:#849497; stroke:none;" d="M44 56L43 61C45.28 59.3596 45.4999 58.3623 44 56z"/>
<path style="fill:#4c7d8b; stroke:none;" d="M47 56C46.0143 57.4785 46 57.2032 46 59C47.3884 58.3087 47.8606 58.0154 49 57L47 56z"/>
<path style="fill:#415a66; stroke:none;" d="M47 58L51 68C51.9846 65.1938 50.6334 62.847 50 60L51 62C51.8742 59.9479 51.9528 58.2528 52 56L47 58z"/>
<path style="fill:#e0e0e1; stroke:none;" d="M22.3333 58.6667C22.2778 58.7222 22.2222 59.7778 22.6667 59.3333C22.7222 59.2778 22.7778 58.2222 22.3333 58.6667z"/>
<path style="fill:#504f50; stroke:none;" d="M23 58L24 59L23 58z"/>
<path style="fill:#555656; stroke:none;" d="M28.3333 58.6667C28.2778 58.7222 28.2222 59.7778 28.6667 59.3333C28.7222 59.2778 28.7778 58.2222 28.3333 58.6667z"/>
<path style="fill:#65858b; stroke:none;" d="M32 58C33.8498 59.3789 34.4077 59.715 36 58L32 58z"/>
<path style="fill:#9babb9; stroke:none;" d="M36 58C37.2246 60.2707 37.4911 60.5909 40 61C38.6589 59.7259 37.5969 58.9593 36 58z"/>
<path style="fill:#dcdcdd; stroke:none;" d="M52 58L52 61C52.6961 59.4463 52.6961 59.5537 52 58z"/>
<path style="fill:#8a8c8d; stroke:none;" d="M23 59L24 60L23 59z"/>
<path style="fill:#959697; stroke:none;" d="M29 59L29 62C29.6961 60.4463 29.6961 60.5537 29 59z"/>
<path style="fill:#596f7a; stroke:none;" d="M45 59L44 64C45.3182 62.0739 45.6513 61.2341 45 59z"/>
<path style="fill:#337092; stroke:none;" d="M46 59L46 63C46.9114 61.6234 47.4038 60.5601 48 59L46 59z"/>
<path style="fill:#435771; stroke:none;" d="M33 60C32.5983 61.9435 32.5983 62.0565 33 64C33.9114 62.6234 34.4038 61.5601 35 60L33 60z"/>
<path style="fill:#4e778f; stroke:none;" d="M34 62C35.58 61.3164 35.7772 61.1952 37 60C35.42 60.6836 35.2228 60.8048 34 62z"/>
<path style="fill:#4c7d8b; stroke:none;" d="M47 60C47.6836 61.58 47.8048 61.7772 49 63L49 60L47 60z"/>
<path style="fill:#677f85; stroke:none;" d="M50 60L50 64C50.7102 62.2405 50.7102 61.7595 50 60z"/>
<path style="fill:#504f50; stroke:none;" d="M24 61L25 62L24 61z"/>
<path style="fill:#4a6a7a; stroke:none;" d="M36 61C35.1456 63.38 34.3337 65.4877 34 68C35.9913 65.693 36.9691 63.9605 36 61z"/>
<path style="fill:#688997; stroke:none;" d="M37 61L37 64L39 63C38.4549 61.3648 38.6352 61.5451 37 61z"/>
<path style="fill:#295b6f; stroke:none;" d="M43 61L43 64C43.6961 62.4463 43.6961 62.5537 43 61z"/>
<path style="fill:#a7adaf; stroke:none;" d="M52 61L52 64C52.6961 62.4463 52.6961 62.5537 52 61z"/>
<path style="fill:#959697; stroke:none;" d="M24 62L25 63L24 62z"/>
<path style="fill:#686667; stroke:none;" d="M29 62L29 65C29.6961 63.4463 29.6961 63.5537 29 62z"/>
<path style="fill:#5490a5; stroke:none;" d="M34 62L34 64L36 64L36 62L34 62M41 62L41 64L43 64L43 62L41 62z"/>
<path style="fill:#8a969f; stroke:none;" d="M45 62L44 66C45.6556 64.5957 45.7511 64.0465 45 62z"/>
<path style="fill:#4b696d; stroke:none;" d="M47 62L46 66L42 66L44 69L47 68L47 72L49 63L47 62z"/>
<path style="fill:#2f383b; stroke:none;" d="M51.3333 62.6667C51.2778 62.7222 51.2222 63.7778 51.6667 63.3333C51.7222 63.2778 51.7778 62.2222 51.3333 62.6667z"/>
<path style="fill:#c4c6c4; stroke:none;" d="M24 63L25 64L24 63z"/>
<path style="fill:#9dafb5; stroke:none;" d="M38 63L37 64C38.5615 67.6145 39.4935 71.0978 40 75C40.9241 73.3518 41.4494 71.8251 42 70C40.3731 67.655 39.9827 65.1339 38 63z"/>
<path style="fill:#a9a9a9; stroke:none;" d="M25.3333 64.6667C25.2778 64.7222 25.2222 65.7778 25.6667 65.3333C25.7222 65.2778 25.7778 64.2222 25.3333 64.6667z"/>
<path style="fill:#898985; stroke:none;" d="M30 64L30 67C30.6961 65.4463 30.6961 65.5537 30 64z"/>
<path style="fill:#33575f; stroke:none;" d="M41.6667 64.3333C41.2222 64.7778 42.2778 64.7222 42.3333 64.6667C42.7778 64.2222 41.7222 64.2778 41.6667 64.3333z"/>
<path style="fill:#5c7f91; stroke:none;" d="M43 64L40 66C41.8927 66.7389 43.825 66.2184 43 64z"/>
<path style="fill:#669fb6; stroke:none;" d="M48.3333 64.6667C48.2778 64.7222 48.2222 65.7778 48.6667 65.3333C48.7222 65.2778 48.7778 64.2222 48.3333 64.6667z"/>
<path style="fill:#7f8381; stroke:none;" d="M52 64L52 70C52.9511 67.7147 52.9511 66.2853 52 64z"/>
<path style="fill:#383837; stroke:none;" d="M29.3333 65.6667C29.2778 65.7222 29.2222 66.7778 29.6667 66.3333C29.7222 66.2778 29.7778 65.2222 29.3333 65.6667z"/>
<path style="fill:#54889f; stroke:none;" d="M36 65L34 69C36.133 67.8446 36.7824 67.118 38 65L36 65z"/>
<path style="fill:#5c7f91; stroke:none;" d="M47.3333 65.6667C47.2778 65.7222 47.2222 66.7778 47.6667 66.3333C47.7222 66.2778 47.7778 65.2222 47.3333 65.6667z"/>
<path style="fill:#286178; stroke:none;" d="M49 65L48 69C50.0347 67.7741 50.3265 67.2974 51 65L49 65z"/>
<path style="fill:#737575; stroke:none;" d="M26 66L27 67L26 66z"/>
<path style="fill:#6b8691; stroke:none;" d="M33.3333 66.6667C33.2778 66.7222 33.2222 67.7778 33.6667 67.3333C33.7222 67.2778 33.7778 66.2222 33.3333 66.6667z"/>
<path style="fill:#37616b; stroke:none;" d="M37 66L36 70C37.6556 68.5957 37.7511 68.0465 37 66z"/>
<path style="fill:#738c93; stroke:none;" d="M38 66L38 71C38.8299 68.9695 38.8299 68.0305 38 66z"/>
<path style="fill:#bfbfbf; stroke:none;" d="M26 67L27 68L26 67z"/>
<path style="fill:#504f50; stroke:none;" d="M27 67L28 68L27 67M30.3333 67.6667C30.2778 67.7222 30.2222 68.7778 30.6667 68.3333C30.7222 68.2778 30.7778 67.2222 30.3333 67.6667z"/>
<path style="fill:#56666f; stroke:none;" d="M40 67L40 69L42 69L42 67L40 67z"/>
<path style="fill:#65879b; stroke:none;" d="M42 67L42 69L44 69L44 67L42 67z"/>
<path style="fill:#8a8c8d; stroke:none;" d="M27 68L28 69L27 68z"/>
<path style="fill:#849497; stroke:none;" d="M45 68L45 71C46.1952 69.7772 46.3164 69.58 47 68L45 68z"/>
<path style="fill:#414f57; stroke:none;" d="M50 68L49 73C50.7968 73 50.5215 72.9857 52 72C51.436 70.248 51.0811 69.458 50 68z"/>
<path style="fill:#1d3537; stroke:none;" d="M51.3333 68.6667C51.2778 68.7222 51.2222 69.7778 51.6667 69.3333C51.7222 69.2778 51.7778 68.2222 51.3333 68.6667z"/>
<path style="fill:#c4c2c2; stroke:none;" d="M27 69L28 70L27 69z"/>
<path style="fill:#555656; stroke:none;" d="M28 69L29 70L28 69z"/>
<path style="fill:#252425; stroke:none;" d="M30 69C30.398 71.6744 30.89 72.2372 33 74C32.1986 71.896 31.5034 70.6631 30 69z"/>
<path style="fill:#438393; stroke:none;" d="M35 69L34 74C35.7227 74.9341 37.1062 75.5354 39 76C37.9957 74.3932 37.8035 73.965 38 72L39 74C39.7 71.0386 37.5015 70.184 35 69z"/>
<path style="fill:#75899d; stroke:none;" d="M40.6667 69.3333C40.2222 69.7778 41.2778 69.7222 41.3333 69.6667C41.7778 69.2222 40.7222 69.2778 40.6667 69.3333z"/>
<path style="fill:#4a6a7a; stroke:none;" d="M42 69L41 74C43.442 73.8905 45.6228 73.572 48 73L47 70L42 69z"/>
<path style="fill:#6b8691; stroke:none;" d="M48 69L48 73C49.0811 71.542 49.4361 70.752 50 69L48 69z"/>
<path style="fill:#b3b3b3; stroke:none;" d="M28 70L29 71L28 70z"/>
<path style="fill:#5e5e5e; stroke:none;" d="M31 70L32 71L31 70z"/>
<path style="fill:#cecfce; stroke:none;" d="M52.3333 70.6667C52.2778 70.7222 52.2222 71.7778 52.6667 71.3333C52.7222 71.2778 52.7778 70.2222 52.3333 70.6667z"/>
<path style="fill:#686667; stroke:none;" d="M29 71L30 72L29 71z"/>
<path style="fill:#7d7d7d; stroke:none;" d="M30 72L31 73L30 72z"/>
<path style="fill:#56666f; stroke:none;" d="M38 72L37 75C38.7662 74.0214 38.9554 73.7782 38 72z"/>
<path style="fill:#9a9ca1; stroke:none;" d="M51 72L52 73L51 72z"/>
<path style="fill:#bfbfbf; stroke:none;" d="M30 73L31 74L30 73z"/>
<path style="fill:#737575; stroke:none;" d="M31 73L32 74L31 73z"/>
<path style="fill:#5e5e5e; stroke:none;" d="M32 75L35 75L34 73C32.3648 73.5451 32.5451 73.3648 32 75z"/>
<path style="fill:#818b89; stroke:none;" d="M46 73C46.8993 75.1236 46.8764 75.1007 49 76C47.9988 74.0762 47.9225 73.9015 46 73z"/>
<path style="fill:#56666f; stroke:none;" d="M48 75L51 74C49.2218 73.0445 48.9786 73.2338 48 75z"/>
<path style="fill:#c4c6c4; stroke:none;" d="M51 73L52 74L51 73z"/>
<path style="fill:#7a7677; stroke:none;" d="M35 74L33 75C34.482 75.7912 35.7964 75.8698 35 74z"/>
<path style="fill:#a1a1a0; stroke:none;" d="M39 74C37.7772 75.1952 37.58 75.3164 36 76C38.7622 77.5915 41.2861 77.3315 42 74L39 74z"/>
<path style="fill:#8a8c8d; stroke:none;" d="M42 74C42.6544 77.0539 44.0066 76.9358 47 77L42 74z"/>
<path style="fill:#6b6d6e; stroke:none;" d="M43 74C44.314 75.6179 44.8772 75.6933 47 76C45.457 74.7333 44.9522 74.5108 43 74z"/>
<path style="fill:#898b95; stroke:none;" d="M49 74L50 75L49 74z"/>
<path style="fill:#bfbfbf; stroke:none;" d="M50 74L51 75L50 74z"/>
<path style="fill:#c4c2c2; stroke:none;" d="M34.6667 76.3333C34.2222 76.7778 35.2778 76.7222 35.3333 76.6667C35.7778 76.2222 34.7222 76.2778 34.6667 76.3333z"/>
<path style="fill:#e0e0e1; stroke:none;" d="M47.6667 76.3333C47.2222 76.7778 48.2778 76.7222 48.3333 76.6667C48.7778 76.2222 47.7222 76.2778 47.6667 76.3333z"/>
<path style="fill:#e5f3eb; stroke:none;" d="M36 77L37 80C38.0154 78.8606 38.3087 78.3884 39 77L36 77z"/>
<path style="fill:#c4c6c4; stroke:none;" d="M39 77C40.769 77.7789 42.0359 77.9124 44 78C42.231 77.2211 40.9641 77.0876 39 77z"/>
<path style="fill:#dcdcdd; stroke:none;" d="M44 77C45.2483 77.6848 45.5484 77.7488 47 78C45.7516 77.3152 45.4516 77.2512 44 77z"/>
</svg>
